# xmcd
#
# Track frame offsets:
# 150
# 5992
# 28529
# 43757
# 55234
# 67509
# 81905
# 91658
# 106699
# 127816
# 141889
# 155967
# 178457
# 191737
# 205573
# 218690
# 234775
# 252949
# 274789
#
# Disc length: 3976 seconds
#
# Revision: 0
# Processed by: cddbd v1.5.1PL0 Copyright (c) Steve Scherf et al.
# Submitted via: Audion 2.5.0 (http://www.panic.com/audion/)
#
DISCID=010f8613
DTITLE=Wild Brothers Band - Wild Brothers Band
DYEAR=1900
DGENRE=
TTITLE0=WBB 01
TTITLE1=WBB 02
TTITLE2=WBB 03
TTITLE3=WBB 04
TTITLE4=WBB 05
TTITLE5=WBB 06
TTITLE6=WBB 07
TTITLE7=WBB 08
TTITLE8=WBB 09
TTITLE9=WBB 10
TTITLE10=WBB 11
TTITLE11=WBB 12
TTITLE12=WBB 13
TTITLE13=WBB 14
TTITLE14=WBB 15
TTITLE15=WBB 16
TTITLE16=WBB 17
TTITLE17=WBB 18
TTITLE18=WBB 19
EXTD=
EXTT0=
EXTT1=
EXTT2=
EXTT3=
EXTT4=
EXTT5=
EXTT6=
EXTT7=
EXTT8=
EXTT9=
EXTT10=
EXTT11=
EXTT12=
EXTT13=
EXTT14=
EXTT15=
EXTT16=
EXTT17=
EXTT18=
PLAYORDER=
